<svg xmlns="http://www.w3.org/2000/svg" width="5007" height="1348" style="shape-rendering:geometricPrecision;text-rendering:geometricPrecision;image-rendering:optimizeQuality;fill-rule:evenodd;clip-rule:evenodd"><path style="opacity:.996" fill="#f26e21" d="M589.5-.5h202v199h-202V-.5Z"/><path style="opacity:.988" fill="#4c4d4e" d="M4644.5 78.5c50.66-2.89 99.32 5.442 146 25 1.08.865 1.25 1.865.5 3a3942.964 3942.964 0 0 1-27.5 65.5c-9.29-2.76-18.62-5.76-28-9-36.38-10.819-73.04-12.153-110-4-36.29 11.95-62.12 35.45-77.5 70.5-16.8 42.369-21.14 86.035-13 131 15.59 76.243 62.42 114.91 140.5 116 32.88-1.208 64.54-7.708 95-19.5 8.37 22.61 16.04 45.443 23 68.5-72.11 29.425-145.78 33.925-221 13.5-71.74-23.074-116.57-71.241-134.5-144.5-9.02-44.504-9.85-89.171-2.5-134 19.27-97.769 77.6-156.935 175-177.5a596.447 596.447 0 0 1 34-4.5Z"/><path style="opacity:.993" fill="#4c4d4e" d="M1379.5 86.5c57.33-.167 114.67 0 172 .5 32.08.936 62.41 8.602 91 23 30.63 18.406 47.13 45.573 49.5 81.5 2.85 49.078-17.65 84.245-61.5 105.5 67.76 17.793 97.59 61.626 89.5 131.5-6.94 40.386-28.44 70.219-64.5 89.5-30.87 15.218-63.54 23.551-98 25-59.33.5-118.67.667-178 .5v-457Zm92 68c22.67-.167 45.34 0 68 .5 44.57 5.3 63.4 30.133 56.5 74.5-6.48 27.145-23.65 42.311-51.5 45.5-24.33.5-48.66.667-73 .5v-121Zm0 187c27.36-.385 54.69.115 82 1.5 17.18 1.725 32.85 7.391 47 17 20.25 19.16 26.75 42.327 19.5 69.5-5.98 18.649-18.15 31.483-36.5 38.5a95.281 95.281 0 0 1-31 7c-27 .5-54 .667-81 .5v-134Zm281-255c57.33-.167 114.67 0 172 .5 32.08.936 62.41 8.602 91 23 30.63 18.4 47.13 45.567 49.5 81.5 2.84 49.085-17.66 84.251-61.5 105.5 67.76 17.793 97.59 61.626 89.5 131.5-6.94 40.386-28.44 70.219-64.5 89.5-30.87 15.218-63.54 23.551-98 25-59.33.5-118.67.667-178 .5v-457Zm92 68c22.67-.167 45.34 0 68 .5 46.16 6.47 64.66 32.637 55.5 78.5-7.69 24.784-24.52 38.617-50.5 41.5-24.33.5-48.66.667-73 .5v-121Zm0 187c23.34-.167 46.67 0 70 .5 21.48.283 41.15 6.283 59 18 20.11 19.181 26.61 42.347 19.5 69.5-5.98 18.649-18.15 31.483-36.5 38.5a95.281 95.281 0 0 1-31 7c-27 .5-54 .667-81 .5v-134Z"/><path style="opacity:.99" fill="#4c4d4e" d="M2162.5 86.5h137a26836.068 26836.068 0 0 0 110.5 327c37.28-108.998 74.44-217.998 111.5-327 46.05-.659 91.88.008 137.5 2a3969.624 3969.624 0 0 1 31.5 455h-96a3466.362 3466.362 0 0 0-20.5-362A113838.079 113838.079 0 0 0 2448.5 543c-29.91.828-59.74.662-89.5-.5a58685.852 58685.852 0 0 0-123-363 3868.36 3868.36 0 0 0-19.5 364h-88c1.91-153.086 13.24-305.42 34-457Z"/><path style="opacity:.993" fill="#4c4d4e" d="M2752.5 86.5c60.33-.167 120.67 0 181 .5 36.94 1.062 70.94 11.395 102 31 25.19 18.868 39.69 44.035 43.5 75.5 5.19 71.126-25.98 117.959-93.5 140.5 40.67 69.667 81.33 139.333 122 209-37 .833-74 .667-111-.5a25322.335 25322.335 0 0 1-104-187 529.895 529.895 0 0 0-46-1v189h-94v-457Zm94 69c22.67-.167 45.34 0 68 .5 51.19 5.907 72.02 34.074 62.5 84.5-7.08 18.745-19.91 31.912-38.5 39.5a116.785 116.785 0 0 1-23 6 870.403 870.403 0 0 1-69 1.5v-132Z"/><path style="opacity:.988" fill="#4c4d4e" d="M3155.5 86.5h95v457h-95v-457Z"/><path style="opacity:.992" fill="#4c4d4e" d="M3518.5 86.5h285v70h-191v116h165v69h-165v132h194v70h-288v-457Z"/><path style="opacity:.993" fill="#4c4d4e" d="M3873.5 86.5c60.33-.167 120.67 0 181 .5 36.94 1.062 70.94 11.395 102 31 30.31 23.131 45.31 53.965 45 92.5-1.12 55.251-26.79 94.085-77 116.5l-18 7c40.67 69.667 81.33 139.333 122 209-37 .833-74 .667-111-.5-34.67-62.333-69.33-124.667-104-187a529.895 529.895 0 0 0-46-1v189h-94v-457Zm94 69c22.67-.167 45.34 0 68 .5 49.79 5.102 70.96 32.269 63.5 81.5-6.56 20.229-19.73 34.395-39.5 42.5a116.646 116.646 0 0 1-23 6 870.403 870.403 0 0 1-69 1.5v-132Z"/><path style="opacity:.988" fill="#4c4d4e" d="M4276.5 86.5h95v457h-95v-457Z"/><path style="opacity:.946" fill="#4c4d4e" d="M5006.5 151.5v25c-10.89 40.022-37.22 59.189-79 57.5-39.64-6.634-60.64-29.968-63-70 2.74-39.077 23.41-62.077 62-69 41.87-2.252 68.54 16.582 80 56.5Zm-79-42c33.89-1.271 54.06 14.729 60.5 48 1.94 22.614-6.23 40.447-24.5 53.5-25.71 13.057-48.54 9.224-68.5-11.5-16.87-24.254-16.53-48.254 1-72 8.72-9.27 19.22-15.27 31.5-18Zm4 31a35.37 35.37 0 0 1 14 3.5c4.63 6.162 3.63 11.162-3 15a61.546 61.546 0 0 1-17 1.5v-19c2.24.295 4.24-.039 6-1Z"/><path style="opacity:.95" fill="#4c4d4e" d="M4922.5 128.5a160.6 160.6 0 0 1 28 1.5c12.84 3.152 18 11.318 15.5 24.5-2.56 5.561-6.73 9.394-12.5 11.5 5 2.801 8.5 6.968 10.5 12.5a265.922 265.922 0 0 0 5.5 22c-6.01.166-12.01-.001-18-.5a374.889 374.889 0 0 1-7.5-22.5 11.475 11.475 0 0 0-4.5-3.5 53.069 53.069 0 0 0-14-1.5v28h-17v-70a120.12 120.12 0 0 0 14-2Zm9 12c-1.76.961-3.76 1.295-6 1v19c5.74.289 11.41-.211 17-1.5 6.63-3.838 7.63-8.838 3-15a35.37 35.37 0 0 0-14-3.5Z"/><path style="opacity:.951" fill="#004585" d="M633.5 198.5h22a22129.109 22129.109 0 0 1-117 256h-22l117-256Z"/><path style="opacity:.989" fill="#004585" d="M953.5 623.5h-21a16866.533 16866.533 0 0 1 65-163c-54.398-32.976-74.232-80.643-59.5-143 16.183-44.852 47.683-71.685 94.5-80.5 45.85-5.974 83.69 8.526 113.5 43.5 27.02 37.498 32.02 77.831 15 121-24.98 49.086-65.15 72.253-120.5 69.5a93.726 93.726 0 0 1-23-4.5c-21.338 52.353-42.672 104.686-64 157Z"/><path style="opacity:.984" fill="#004684" d="M435.5 479.5c.311.978.978 1.645 2 2a60.713 60.713 0 0 1 .5 19c-.77-1.098-1.603-1.098-2.5 0a29477.334 29477.334 0 0 1-260.5-108c-14.819 26.513-37.319 42.346-67.5 47.5-46.9 4.81-80.733-13.69-101.5-55.5-2.812-7.27-4.979-14.604-6.5-22v-28c7.03-35.874 27.697-60.374 62-73.5 46.545-12.619 83.712.548 111.5 39.5 13.052 23.254 16.219 47.754 9.5 73.5a3.943 3.943 0 0 0 1 2 39690.188 39690.188 0 0 0 252 103.5Z"/><path style="opacity:.982" fill="#4c4d4e" d="M3290.5 332.5h185v69h-185v-69Z"/><path style="opacity:.994" fill="#f26e21" d="M516.5 454.5h46v75a50.512 50.512 0 0 0 0 20v29h-127v-11c.311-.978.978-1.645 2-2 .997-6.634 1.33-13.3 1-20-1.291.237-2.291-.096-3-1v-44c.897-1.098 1.73-1.098 2.5 0a60.713 60.713 0 0 0-.5-19c-1.022-.355-1.689-1.022-2-2v-25h81Z"/><path style="opacity:.949" fill="#024684" d="M562.5 529.5a86966.45 86966.45 0 0 0 312 114c.65.304 1.317.637 2 1a81.883 81.883 0 0 1 1 18c-1.291-.237-2.291.096-3 1l-312-114a50.512 50.512 0 0 1 0-20Z"/><path style="opacity:.976" fill="#004684" d="M435.5 544.5c.709.904 1.709 1.237 3 1 .33 6.7-.003 13.366-1 20-1.022.355-1.689 1.022-2 2a16922.608 16922.608 0 0 0-257 161c12.551 34.3 4.884 63.133-23 86.5-21.806 14.305-45.139 17.305-70 9-36.605-17.041-51.105-45.541-43.5-85.5 11.12-33.067 34.12-50.734 69-53 23.094.052 42.094 8.719 57 26a114289.102 114289.102 0 0 1 267.5-167Z"/><path style="opacity:.953" fill="#004585" d="M509.5 578.5h21a13951.224 13951.224 0 0 1 72 212h-21a39566.666 39566.666 0 0 1-72-212Z"/><path style="opacity:.987" fill="#f26e21" d="M932.5 623.5h40v96h-14a66.641 66.641 0 0 0-23 0h-61v-56c.709-.904 1.709-1.237 3-1a81.883 81.883 0 0 0-1-18 43.836 43.836 0 0 0-2-1v-20h58Z"/><path style="opacity:.971" fill="#004684" d="M935.5 719.5a66.641 66.641 0 0 1 23 0l92 188c19.8-3.011 36.97 2.322 51.5 16 15.05 19.744 16.38 40.411 4 62-14.57 18.36-33.4 24.86-56.5 19.5-29.37-10.899-40.87-31.732-34.5-62.5 3.58-10.152 9.41-18.819 17.5-26a27135.033 27135.033 0 0 0-97-197Z"/><path style="opacity:.992" fill="#f26e21" d="M581.5 790.5h135v184h-112c-7.235-1.311-14.568-1.311-22 0h-52v-184h51Z"/><path style="opacity:.988" fill="#f26f20" d="M2294.5 861.5c47.28-.913 91.62 9.92 133 32.5.98 2.147.81 4.314-.5 6.5a1976.476 1976.476 0 0 1-23.5 54c-48.85-28.765-100.52-35.598-155-20.5-34.68 16.024-57.18 42.524-67.5 79.5-10.74 41.57-8.74 82.57 6 123 22.72 47.64 60.72 71.31 114 71a236.03 236.03 0 0 0 48.5-5.5c1.99-50.62 2.66-101.45 2-152.5h76v201c-59.53 18.63-120.19 23.79-182 15.5-79.93-16.03-129.76-63.53-149.5-142.5-10.2-50.02-5.87-98.69 13-146 31.56-65.849 83.73-103.682 156.5-113.5 9.82-.869 19.48-1.702 29-2.5Z"/><path style="opacity:.987" fill="#f26f20" d="M2691.5 861.5c28.69-.354 56.69 3.812 84 12.5 50.56 18.225 83.72 53.059 99.5 104.5 15.32 55.67 15.32 111.34 0 167-23.18 67.84-70.02 108.68-140.5 122.5-43.05 6.79-85.39 3.79-127-9-47.8-17.13-79.3-49.96-94.5-98.5-15.77-56.16-16.43-112.5-2-169 23.5-73.823 73.67-116.323 150.5-127.5 10.15-.836 20.15-1.669 30-2.5Zm-1 63c52.86 1.036 87.36 26.702 103.5 77 12.64 44.34 12.64 88.67 0 133-19.6 53.9-58.1 78.07-115.5 72.5-40.83-5.17-68.33-27.01-82.5-65.5-11.97-38.63-14.97-77.97-9-118 3.7-30.235 16.53-55.735 38.5-76.5 19.13-14.986 40.79-22.486 65-22.5Z"/><path style="opacity:.988" fill="#f26f20" d="M4310.5 861.5c39.61-1.246 76.95 7.254 112 25.5 33.83 20.176 57 49.009 69.5 86.5 16.71 55.38 17.71 111.05 3 167-24.65 76.31-76.81 119.47-156.5 129.5-39.23 4.29-77.56.29-115-12-48.21-18.55-79.38-52.72-93.5-102.5-11.19-44.52-13.53-89.52-7-135 6.76-46.367 27.26-85.2 61.5-116.5 37.1-28.61 79.1-42.777 126-42.5Zm-2 63c48.43.304 81.93 22.637 100.5 67 13.15 39.53 16.15 79.87 9 121-4.72 30.95-18.89 56.45-42.5 76.5-23.52 16.17-49.52 22.17-78 18-39.27-4.62-66.43-25.12-81.5-61.5-14.74-44.25-17.41-89.25-8-135 6.6-32.762 24.1-57.595 52.5-74.5 15.32-7.226 31.32-11.06 48-11.5Z"/><path style="opacity:.989" fill="#f26f20" d="M1379.5 869.5c34.91-.329 69.74.004 104.5 1 49.33 96 98.67 192 148 288 .5-96.33.67-192.666.5-289h71v394c-35.01.33-70.01 0-105-1-49.17-96.33-98.33-192.67-147.5-289-.5 96.67-.67 193.33-.5 290h-71v-394Z"/><path style="opacity:.992" fill="#f26f20" d="M1801.5 869.5h232v63h-153v96h132v63h-132v109h155v63h-234v-394Z"/><path style="opacity:.987" fill="#f26f20" d="M2923.5 869.5h297v65h-109v329h-80v-329h-108v-65Z"/><path style="opacity:.985" fill="#f26f20" d="M3279.5 869.5h80v394h-80v-394Z"/><path style="opacity:.988" fill="#f26f20" d="M3566.5 869.5c30.01-.333 60.01 0 90 1a6574.54 6574.54 0 0 1 146 392c-29.33 1.17-58.66 1.33-88 .5-9.08-29.8-18.08-59.63-27-89.5-52-.17-104 0-156 .5-9.54 29.61-18.87 59.27-28 89-27.33.5-54.66.67-82 .5 44-133.02 92.34-264.352 145-394Zm43 81a3054.79 3054.79 0 0 1 58 160.5c-38.33.5-76.67.67-115 .5a2555.158 2555.158 0 0 1 57-161Z"/><path style="opacity:.989" fill="#f26f20" d="M3788.5 869.5h296v65h-108v329h-80v-329h-108v-65Z"/><path style="opacity:.986" fill="#f26f20" d="M4584.5 869.5c49.33-.167 98.67 0 148 .5 31.76.518 60.76 9.518 87 27 29.36 25.053 41.19 56.887 35.5 95.5-5.2 37.52-24.7 64.68-58.5 81.5-7.7 3.18-15.36 6.35-23 9.5 35.59 59.5 70.92 119.17 106 179a993.105 993.105 0 0 1-89 0l-90-162c-11.98-1-23.98-1.33-36-1v164h-80v-394Zm80 63c18.67-.167 37.34 0 56 .5 38.83 3.185 55.66 24.018 50.5 62.5-8.81 25.11-26.64 38.61-53.5 40.5-17.66.5-35.33.67-53 .5v-104Z"/><path style="opacity:.972" fill="#004684" d="M604.5 974.5c-29.657 91.31-59.324 182.64-89 274 27.167 18.32 34.334 42.65 21.5 73-8.183 13.67-20.017 22.34-35.5 26h-24c-29.954-9.21-43.454-29.54-40.5-61 4.284-19.62 15.784-33.12 34.5-40.5a81.896 81.896 0 0 1 25-2.5l86-269c7.432-1.311 14.765-1.311 22 0Z"/></svg>