<svg version="1.1" id="Ebene_1" x="0" y="0" viewBox="0 0 138 38" xml:space="preserve" width="138" height="38" xmlns="http://www.w3.org/2000/svg"><style type="text/css" id="style2">.st0{fill:#004481}.st1{fill:#eb690b}.st2{fill:#4b4b4d}</style><g id="g24" transform="translate(-11.983 -27.428)"><g id="g6"><path transform="rotate(-72.061 28.86 57.702)" class="st0" id="rect4" d="M23.1 57.5h11.5v.4H23.1z"/></g><g id="g10"><path class="st0" id="polygon8" d="m27.1 42.7 3.3 9.6.4-.1-3.3-9.7-.2.3 11.2 4.1.2.1.1-.2 3.3-8.4-.4-.2-3.4 8.4.3-.1-11.2-4.1-.4-.2z"/></g><g id="g14"><path transform="rotate(-26.124 40.4 50.45)" class="st0" id="rect12" d="M40.2 46.2h.4v8.4h-.4z"/></g><g id="g18"><path class="st0" id="polygon16" d="m27.1 42.5.1-.1L17 48.8l.2.3 10.3-6.3v-.1l5.1-11-.4-.2z"/></g><g id="g22"><path transform="rotate(-67.556 21.972 40.38)" class="st0" id="rect20" d="M21.8 34.6h.4v11.6h-.4z"/></g></g><g id="g48" transform="translate(-11.983 -27.428)"><g id="g36"><circle class="st0" cx="27.1" cy="63.2" r="1.4" id="circle26"/><circle class="st0" cx="41.9" cy="38.3" r="3.1" id="circle28"/><circle class="st0" cx="42.2" cy="54.2" r="1.3" id="circle30"/><circle class="st0" cx="17.1" cy="48.9" r="1.9" id="circle32"/><circle class="st0" cx="16.6" cy="38.2" r="2.4" id="circle34"/></g><g id="g46"><path class="st1" id="rect38" d="M29.8 28.9H35v5.2h-5.2z"/><path class="st1" id="rect40" d="M37.3 45.4h2.5v2.5h-2.5z"/><path class="st1" id="rect42" d="M28.2 49.8H33v4.8h-4.8z"/><path class="st1" id="rect44" d="M25.7 41H29v3.3h-3.3z"/></g></g><g id="g70" transform="translate(-11.983 -27.428)"><g id="g52"><path transform="rotate(-72.061 28.881 57.702)" class="st0" id="rect50" d="M23.1 57.5h11.5v.4H23.1z"/></g><g id="g56"><path class="st0" id="polygon54" d="m27.2 42.7 3.2 9.6.5-.1-3.3-9.7-.3.3 11.2 4.1.2.1.1-.2 3.4-8.4-.4-.2-3.4 8.4.2-.1-11.2-4.1-.4-.2z"/></g><g id="g60"><path transform="rotate(-26.122 40.416 50.45)" class="st0" id="rect58" d="M40.2 46.3h.4v8.4h-.4z"/></g><g id="g64"><path class="st0" id="polygon62" d="m17 48.8.3.3 10.2-6.3v-.1h.1l5-11-.4-.2-5 11v-.1z"/></g><g id="g68"><path transform="rotate(-67.549 21.991 40.38)" class="st0" id="rect66" d="M21.8 34.6h.4v11.6h-.4z"/></g></g><g id="g94" transform="translate(-11.983 -27.428)"><g id="g82"><circle class="st0" cx="27.1" cy="63.2" r="1.4" id="circle72"/><path class="st0" d="M38.9 38.3c0 1.7 1.4 3.1 3.1 3.1s3.1-1.4 3.1-3.1-1.4-3.1-3.1-3.1-3.1 1.4-3.1 3.1" id="path74"/><circle class="st0" cx="42.3" cy="54.2" r="1.3" id="circle76"/><circle class="st0" cx="17.1" cy="48.9" r="1.9" id="circle78"/><circle class="st0" cx="16.6" cy="38.2" r="2.4" id="circle80"/></g><g id="g92"><path class="st1" id="rect84" d="M29.8 29H35v5.2h-5.2z"/><path class="st1" id="rect86" d="M37.3 45.4h2.5v2.5h-2.5z"/><path class="st1" id="rect88" d="M28.2 49.8H33v4.8h-4.8z"/><path class="st1" id="rect90" d="M25.7 41H29v3.3h-3.3z"/></g></g><g id="g116" transform="translate(-11.983 -27.428)"><g id="g98"><path transform="rotate(-72.061 28.929 57.701)" class="st0" id="rect96" d="M23.2 57.5h11.5v.4H23.2z"/></g><g id="g102"><path class="st0" id="polygon100" d="m27.2 42.7 3.3 9.6.4-.1-3.3-9.7-.3.3 11.2 4.1.2.1.1-.2 3.4-8.4-.4-.2-3.4 8.4.3-.1-11.2-4.1-.5-.2z"/></g><g id="g106"><path transform="rotate(-26.122 40.463 50.45)" class="st0" id="rect104" d="M40.2 46.3h.4v8.4h-.4z"/></g><g id="g110"><path class="st0" id="polygon108" d="m27.2 42.5.1-.1-10.2 6.4.2.3 10.2-6.3.1-.1 5.1-11-.4-.2z"/></g><g id="g114"><path transform="rotate(-67.549 22.037 40.38)" class="st0" id="rect112" d="M21.8 34.6h.4v11.6h-.4z"/></g></g><g id="g140" transform="translate(-11.983 -27.428)"><g id="g128"><circle class="st0" cx="27.2" cy="63.2" r="1.4" id="circle118"/><path class="st0" d="M38.9 38.3c0 1.7 1.4 3.1 3.1 3.1s3.1-1.4 3.1-3.1-1.4-3.1-3.1-3.1-3.1 1.4-3.1 3.1" id="path120"/><circle class="st0" cx="42.3" cy="54.2" r="1.3" id="circle122"/><circle class="st0" cx="17.2" cy="48.9" r="1.9" id="circle124"/><circle class="st0" cx="16.7" cy="38.2" r="2.4" id="circle126"/></g><g id="g138"><path class="st1" id="rect130" d="M29.8 29H35v5.2h-5.2z"/><path class="st1" id="rect132" d="M37.4 45.4h2.5v2.5h-2.5z"/><path class="st1" id="rect134" d="M28.3 49.8h4.8v4.8h-4.8z"/><path class="st1" id="rect136" d="M25.8 41h3.3v3.3h-3.3z"/></g></g><g id="g170" transform="translate(-11.424 -17.14)"><g id="g164"><g id="g162"><path class="st2" d="M58.7 41.5c-.3.5-.7.9-1.2 1.1-.5.3-1.1.4-1.7.5s-1.2.1-1.7.1h-3.9v-12h4.1c.6 0 1.2.1 1.7.2s1 .3 1.3.5q.6.3.9.9c.2.4.3.8.3 1.3 0 .6-.1 1.1-.4 1.5s-.7.8-1.3 1c.7.2 1.3.5 1.7 1s.7 1.1.7 1.8c0 1-.2 1.7-.5 2.1m-3.3-8.1q-.6-.3-1.5-.3h-1.1v3h1.1c.7 0 1.2-.1 1.6-.4s.5-.7.5-1.2-.2-.8-.6-1.1m.6 5c-.4-.3-1-.5-1.7-.5h-1.5v3.5h1.5c.8 0 1.3-.2 1.7-.5s.6-.7.6-1.3q0-.75-.6-1.2" id="path142"/><path class="st2" d="M68.8 41.5c-.3.5-.7.9-1.2 1.1-.5.3-1.1.4-1.7.5s-1.2.1-1.7.1h-3.9v-12h4.1c.6 0 1.2.1 1.7.2s1 .3 1.3.5q.6.3.9.9c.2.4.3.8.3 1.3 0 .6-.1 1.1-.4 1.5s-.7.8-1.3 1c.7.2 1.3.5 1.7 1s.7 1.1.7 1.8c0 1-.2 1.7-.5 2.1m-3.3-8.1q-.6-.3-1.5-.3h-1.1v3H64c.7 0 1.2-.1 1.6-.4s.5-.7.5-1.2c-.1-.5-.2-.8-.6-1.1m.6 5c-.4-.3-1-.5-1.7-.5h-1.5v3.5h1.5c.8 0 1.3-.2 1.7-.5s.6-.7.6-1.3q0-.75-.6-1.2" id="path144"/><path class="st2" d="M82.6 43.3c0-1.6-.1-3.2-.1-4.8s-.2-3.2-.2-4.6L79 43.4h-2.6L73 33.8c-.1 1.4-.1 3-.2 4.6s-.1 3.3-.1 4.9h-2.3c0-2 .1-4 .2-6s.3-4 .5-6h3.6l3.1 9.1 3-9.1h3.6c.2 2 .4 4.1.5 6.1s.2 4 .2 6c0-.1-2.5-.1-2.5-.1" id="path146"/><path class="st2" d="m93.3 43.3-3-5h-1.2v5h-2.6v-12H91c.7 0 1.3.1 1.8.2s1 .3 1.4.6.7.6.9 1 .3.9.3 1.4c0 .8-.2 1.5-.7 2.1s-1.1 1-2 1.2l3.5 5.5zm-1.1-9.7c-.3-.3-.8-.4-1.5-.4h-1.6v3.2h1.3c.7 0 1.3-.2 1.7-.5s.6-.7.6-1.3c0-.4-.1-.7-.5-1" id="path148"/><path class="st2" d="M97.2 43.3v-12h2.6v12z" id="path150"/><path class="st2" d="M101.1 39.6v-1.9h4.9v1.9z" id="path152"/><path class="st2" d="M107.2 43.3v-12h7.6v1.9h-5v3h4.3V38h-4.3v3.4h5.1v1.9z" id="path154"/><path class="st2" d="m123.4 43.3-3-5h-1.2v5h-2.6v-12h4.4c.7 0 1.3.1 1.8.2s1 .3 1.4.6.7.6.9 1 .3.9.3 1.4c0 .8-.2 1.5-.7 2.1s-1.1 1-2 1.2l3.5 5.5zm-1.1-9.7c-.3-.3-.8-.4-1.5-.4h-1.6v3.2h1.3c.7 0 1.3-.2 1.7-.5s.6-.7.6-1.3c0-.4-.1-.7-.5-1" id="path156"/><path class="st2" d="M127.3 43.3v-12h2.6v12z" id="path158"/><path class="st2" d="M139.5 43.3c-.6.1-1.2.2-1.8.2-2.1 0-3.7-.5-4.8-1.6-1.1-1-1.7-2.5-1.7-4.5 0-1 .2-1.9.5-2.7s.8-1.5 1.3-2c.6-.5 1.3-1 2.1-1.2.8-.3 1.7-.4 2.7-.4.6 0 1.1.1 1.7.2s1.1.3 1.6.5l-.6 1.9c-.4-.2-.9-.3-1.3-.5-.5-.1-.9-.2-1.4-.2-.6 0-1.2.1-1.7.3q-.75.3-1.2.9c-.3.4-.6.8-.7 1.4-.2.5-.2 1.1-.2 1.7 0 1.4.3 2.4 1 3.2q1.05 1.2 3 1.2c.5 0 .9 0 1.4-.1s.9-.2 1.4-.4l.5 1.8z" id="path160"/></g></g><g id="g168"><path class="st2" d="M148.4 32.2c0 1.2-1 2.2-2.3 2.2s-2.4-.9-2.4-2.2c0-1.2 1-2.1 2.4-2.1 1.3 0 2.3.9 2.3 2.1m-4.1 0c0 .9.8 1.7 1.8 1.7s1.7-.8 1.7-1.7-.7-1.7-1.8-1.7-1.7.8-1.7 1.7m1.4 1.1h-.5v-2.1c.2 0 .5-.1.9-.1s.6.1.8.2c.1.1.2.3.2.5s-.2.4-.5.5c.2.1.3.2.4.5s.1.5.2.5h-.6c-.1-.1-.1-.3-.2-.5 0-.2-.2-.3-.5-.3h-.3zm0-1.2h.2c.3 0 .5-.1.5-.3s-.2-.3-.5-.3h-.3v.6z" id="path166"/></g></g></svg>